<svg viewBox="0 0 21 18" fill="none" xmlns="http://www.w3.org/2000/svg">
  <path
    d="M20.99 4.16109C20.898 6.18809 19.47 8.96109 16.71 12.4841C13.857 16.1621 11.44 18.0011 9.462 18.0011C8.237 18.0011 7.202 16.8791 6.356 14.6421C5.792 12.5871 5.229 10.5321 4.659 8.48209C4.032 6.24509 3.359 5.12309 2.634 5.12309C2.479 5.12309 1.927 5.45309 0.989 6.10309L0 4.83809C1.035 3.93209 2.06 3.03309 3.066 2.12809C4.446 0.943089 5.488 0.323089 6.178 0.260089C7.811 0.107089 8.818 1.21109 9.198 3.58509C9.606 6.14109 9.888 7.73509 10.049 8.35509C10.521 10.4791 11.039 11.5381 11.602 11.5381C12.039 11.5381 12.701 10.8501 13.581 9.47209C14.461 8.09409 14.932 7.04709 14.996 6.32909C15.122 5.13909 14.651 4.54709 13.581 4.54709C13.081 4.54709 12.563 4.66109 12.028 4.88909C13.058 1.53609 15.03 -0.0929115 17.941 0.00408854C20.098 0.0610885 21.116 1.45009 20.99 4.16009V4.16109Z"
    fill="currentColor" />
</svg>